<?xml version="1.0" encoding="UTF-8"?>
<svg id="Livello_1" data-name="Livello 1" xmlns="http://www.w3.org/2000/svg" viewBox="0 0 1927.19 474.97">
  <g>
    <path d="M1033.81,100.88c-6.44-3.84-20.32-9.25-28.75-17.67-8.22-8.21-12.09-20.29-15.49-27.63-6.91-14.92-18.26-45.14-71.32-45.12l-276.85.12c-7.45,0-13.48,6.04-13.48,13.49l.12,276.61c0,7.45,6.04,13.48,13.49,13.48l387.14-.16c.45,0,.89-.01,1.34-.06,17.52-1.6,31.45-16.25,32.93-34.59.03-.41.04-.82.04-1.22l-.04-98.49c-.02-44.49-6.47-65.21-29.14-78.75ZM990.51,224.64c0,7.45-6.03,13.49-13.48,13.49l-263.05.11c-7.45,0-13.49-6.03-13.49-13.48l-.05-124.86c0-7.45,6.03-13.49,13.48-13.49l231.55-.1c23.69,0,45,16.18,45.01,46.64,0,.28.04,91.69.04,91.69Z" fill="#1c1812"/>
    <path d="M1494.59,87.7c-18.61-8-31.68-16.48-39.58-36.17-8.36-20.86-25.29-37.87-51.77-37.86l-191.97.08c-31.96.01-41.84,24.72-49.4,35.5-7.55,10.78-18.82,22.93-36.74,32.62-21.72,11.75-36.59,31.46-36.57,69.72.02.62,0,153.99,0,153.99,0,3.56,2.89,6.44,6.45,6.44l60.35-.03c3.56,0,6.44-2.89,6.44-6.45l-.03-63.8c0-3.56,2.88-6.44,6.44-6.45l280.42-.12c3.56,0,6.44,2.88,6.45,6.44l.03,63.8c0,3.56,2.89,6.44,6.45,6.44l60.34-.03c3.56,0,6.44-2.89,6.44-6.45l-.06-142.41c-.02-42.05-7.94-64.21-33.69-75.28ZM1448.62,168.93l-280.37.12c-3.57,0-6.47-2.9-6.45-6.47.05-8.12.12-22.32.12-33.46-.01-31.6,22.46-47.26,49.68-47.28l196.05-.08c33.22-.01,47.38,27.04,47.39,48.23v32.49c.02,3.56-2.87,6.44-6.43,6.45Z" fill="#1c1812"/>
    <path d="M1852.25,202.53c0,20.21,41.1,17.68,57.6,32.67,13.44,12.21,16.44,30.83,16.44,37.72v33.53c.02,3.95-3.19,7.16-7.14,7.16l-58.15.02c-3.95,0-7.16-3.19-7.16-7.14,0-11.62,0-33.34-.02-33.54-1.33-19.06-16.1-34.21-34.42-35.11.25-.01.5-.04.75-.06l-176.74.07c-3.95,0-7.16,3.21-7.16,7.16l.03,61.56c0,3.95-3.2,7.16-7.16,7.16l-58.15.02c-3.95,0-7.16-3.2-7.16-7.16l-.12-289.26c0-3.95,3.2-7.16,7.16-7.16l58.15-.02c3.95,0,7.16,3.2,7.16,7.16l.06,147.81c0,3.96,3.21,7.16,7.17,7.16l164.69-.15c33.83-.01,44.39-26.63,45.68-45.42.01-.24-.03-84.16-.04-109.49,0-3.95,3.2-7.16,7.16-7.16l58.15-.02c3.95,0,7.16,3.2,7.16,7.16l.04,88.88c.01,25.94-6.94,49.17-26.64,65.53-20.94,17.4-47.56,9.79-47.33,30.92Z" fill="#1c1812"/>
  </g>
  <g>
    <path d="M675.94,465.71l-7.24-24.09h-28.81s-7.22,24.11-7.22,24.11h-10.68s26.99-83.81,26.99-83.81h11s27.06,83.79,27.06,83.79h-11.1ZM665.87,432.19l-11.54-38.44-11.61,38.45h23.15Z" fill="#1c1812"/>
    <path d="M721.93,466.74c-6.08,0-10.98-1.97-14.72-5.91-3.74-3.94-5.61-9.13-5.61-15.55l-.02-42.43h10.48s.02,40.33.02,40.33c0,4.61,1.02,8.03,3.04,10.26,2.03,2.23,5.13,3.35,9.32,3.35,3.28,0,6.48-.89,9.58-2.68,3.11-1.78,6.27-4.56,9.48-8.33l-.02-42.95h10.48s.03,62.85.03,62.85h-10.48s0-10.47,0-10.47h-3.14c-1.47,3.43-3.89,6.2-7.28,8.33-3.39,2.13-7.1,3.2-11.15,3.2Z" fill="#1c1812"/>
    <path d="M813.69,455.18c-1.82,3.63-4.33,6.46-7.54,8.49-3.21,2.03-6.81,3.04-10.79,3.04-6.49,0-11.52-2.09-15.09-6.28-3.56-4.19-5.35-10.05-5.35-17.6v-17.07c-.01-7.61,2.36-13.51,7.11-17.71,4.75-4.19,11.38-6.29,19.9-6.29,2.44,0,4.96.26,7.54.78,2.58.52,5.03,1.24,7.33,2.14v-22.84s10.47,0,10.47,0l.04,83.8h-10.48s0-10.47,0-10.47h-3.14ZM797.97,456.75c3.42,0,6.67-.91,9.74-2.73,3.07-1.82,6.11-4.58,9.11-8.28v-30.8c-2.18-1.32-4.48-2.32-6.93-2.98-2.45-.66-5.06-.99-7.86-.99-5.66,0-9.85,1.24-12.57,3.72-2.72,2.48-4.08,6.23-4.08,11.26v16.87c0,4.68,1.06,8.17,3.15,10.47s5.24,3.46,9.43,3.45Z" fill="#1c1812"/>
    <path d="M848.26,465.64v-9.43s20.95,0,20.95,0l-.02-44h-20.95s0-9.42,0-9.42h31.43s.02,53.41.02,53.41h20.95s0,9.42,0,9.42l-52.38.02ZM874.42,391.25c-2.65,0-4.8-.42-6.44-1.25-1.64-.84-2.46-2.41-2.46-4.71v-.73c0-2.37.82-4,2.46-4.87,1.64-.87,3.79-1.31,6.44-1.31,2.65,0,4.8.44,6.44,1.31,1.64.87,2.46,2.5,2.46,4.87v.73c0,2.3-.84,3.88-2.51,4.72s-3.81,1.26-6.39,1.26Z" fill="#1c1812"/>
    <path d="M947.77,466.64c-8.45,0-14.93-2.04-19.43-6.12-4.51-4.08-6.76-9.96-6.76-17.65v-16.97c-.01-7.75,2.26-13.72,6.79-17.92,4.54-4.19,11.03-6.29,19.48-6.29,8.38,0,14.82,2.09,19.33,6.28,4.51,4.19,6.76,10.16,6.76,17.91v16.97c.01,7.68-2.24,13.57-6.74,17.65-4.5,4.09-10.98,6.13-19.43,6.14ZM947.77,457.21c5.31,0,9.25-1.19,11.84-3.57,2.58-2.37,3.87-5.97,3.87-10.79v-16.97c0-5.03-1.3-8.75-3.89-11.16-2.59-2.41-6.53-3.61-11.84-3.61-5.31,0-9.25,1.21-11.84,3.62-2.58,2.41-3.87,6.13-3.87,11.16v16.97c0,4.82,1.3,8.42,3.89,10.79,2.58,2.37,6.53,3.56,11.84,3.56Z" fill="#1c1812"/>
    <path d="M1095.47,466.58c-9.78,0-17.11-2.49-22-7.48-4.89-4.99-7.34-12.52-7.34-22.57v-25.35c-.02-10.19,2.43-17.83,7.31-22.89,4.88-5.06,12.25-7.6,22.1-7.6,9.64,0,16.78,2.24,21.43,6.75,4.64,4.5,7.25,11.71,7.81,21.63l-10.47,1.05c-.7-7.54-2.4-12.76-5.09-15.66-2.69-2.9-7.28-4.34-13.78-4.34-6.91,0-11.79,1.59-14.61,4.77-2.83,3.18-4.24,8.61-4.24,16.29v25.35c.01,7.54,1.43,12.87,4.26,15.97,2.83,3.11,7.7,4.66,14.62,4.66,6.49,0,11.09-1.42,13.77-4.25,2.69-2.83,4.38-7.94,5.07-15.35l10.48,1.04c-.56,9.78-3.15,16.88-7.8,21.32-4.64,4.44-11.82,6.66-21.52,6.66Z" fill="#1c1812"/>
    <path d="M1146.8,465.51l-.03-62.85h10.47s0,10.47,0,10.47h3.14c1.46-3.98,3.7-6.9,6.7-8.75,3-1.85,6.63-2.78,10.89-2.78,4.68,0,8.59,1.55,11.73,4.66,3.14,3.11,4.72,7.49,4.72,13.14v9.43s-9.95,0-9.95,0v-5.66c0-3.98-.89-6.91-2.68-8.8-1.78-1.88-4.49-2.83-8.12-2.82-3.28,0-6.27.81-8.96,2.41-2.69,1.61-5.18,4.12-7.49,7.55l.02,44h-10.47Z" fill="#1c1812"/>
    <path d="M1267.47,451.63c-1.88,5.24-4.75,9.03-8.58,11.37-3.84,2.34-9.74,3.51-17.7,3.52-8.31,0-14.77-2-19.38-6.02-4.61-4.01-6.92-9.97-6.92-17.86v-16.87c-.01-8.1,2.41-14.16,7.27-18.18,4.85-4.02,11.19-6.03,19.01-6.03,7.89,0,14.21,2.04,18.96,6.12,4.75,4.08,7.13,10.35,7.13,18.8v9.64s-41.9.02-41.9.02v6.6c0,5.24,1.31,9.03,3.94,11.36,2.62,2.34,6.55,3.51,11.79,3.5,5.03,0,8.7-.7,11-2.1,2.3-1.4,4.05-3.67,5.24-6.81l10.16,2.93ZM1225.35,425.78v2.52s31.43-.01,31.43-.01v-1.57c0-5.66-1.31-9.78-3.93-12.36-2.62-2.58-6.55-3.87-11.79-3.87s-9.17,1.24-11.78,3.72c-2.62,2.48-3.93,6.34-3.92,11.58Z" fill="#1c1812"/>
    <path d="M1305.5,466.49c-5.31,0-10.04-1.41-14.19-4.24-4.16-2.83-6.24-7.38-6.24-13.67,0-5.52,1.79-9.85,5.39-12.99,3.59-3.15,7.8-4.72,12.62-4.72h21.79s0-9.02,0-9.02c0-3.35-1.12-6.01-3.36-7.96-2.24-1.95-5.62-2.93-10.16-2.93-4.61,0-8.05.68-10.32,2.05-2.27,1.36-4.07,4.38-5.39,9.06l-9.22-2.51c1.18-5.94,3.85-10.42,8.01-13.46,4.15-3.04,9.72-4.56,16.71-4.56,6.91,0,12.67,1.55,17.29,4.66,4.61,3.11,6.92,7.92,6.92,14.43v28.13c.01,3.78,1.06,6.14,3.16,7.09,2.1.94,5.24,1.06,9.43.36v9.53c-4.33.63-8.4.33-12.2-.89-3.81-1.22-5.89-4.52-6.24-9.9h-2.09c-1.95,3.22-4.89,5.94-8.8,8.18-3.91,2.24-8.27,3.36-13.09,3.36ZM1306.86,457.59c3.63,0,6.98-.65,10.06-1.95,3.07-1.3,5.72-3.57,7.96-6.8v-10.11s-18.86,0-18.86,0c-3,0-5.5.69-7.49,2.06-1.99,1.37-2.98,3.78-2.98,7.22,0,3.02.86,5.37,2.57,7.06,1.71,1.68,4.63,2.52,8.75,2.52Z" fill="#1c1812"/>
    <path d="M1398.1,466.35c-6.91,0-12.29-1.7-16.13-5.12-3.84-3.42-5.76-8.66-5.77-15.71v-33.52s-17.82,0-17.82,0v-9.43s17.8,0,17.8,0v-20.95s10.47,0,10.47,0v20.95s27.24-.01,27.24-.01v9.43s-27.23.01-27.23.01v32.58c.02,4.05,1.03,7.05,3.06,9.01,2.03,1.95,5.03,2.93,9.01,2.93,2.65,0,5.13-.19,7.44-.58,2.3-.38,4.5-.89,6.6-1.52l2.1,9.53c-2.37.7-4.91,1.28-7.59,1.73-2.69.45-5.75.68-9.17.68Z" fill="#1c1812"/>
    <path d="M1434.87,465.39v-9.43s20.95,0,20.95,0l-.02-44h-20.95s0-9.42,0-9.42h31.43s.02,53.41.02,53.41h20.95s0,9.42,0,9.42l-52.38.02ZM1461.03,391c-2.65,0-4.8-.42-6.44-1.25-1.64-.84-2.46-2.41-2.46-4.71v-.73c0-2.37.82-4,2.46-4.87,1.64-.87,3.79-1.31,6.44-1.31,2.65,0,4.8.43,6.44,1.31,1.64.87,2.46,2.5,2.46,4.87v.73c0,2.3-.84,3.88-2.51,4.72-1.67.84-3.81,1.26-6.39,1.26Z" fill="#1c1812"/>
    <path d="M1540.88,465.35h-13.09s-22.34-62.84-22.34-62.84h11.42s17.62,54.35,17.62,54.35l17.58-54.37h11.1s-22.29,62.86-22.29,62.86Z" fill="#1c1812"/>
    <path d="M1634.1,451.48c-1.88,5.24-4.75,9.03-8.58,11.37-3.84,2.34-9.74,3.51-17.7,3.52-8.31,0-14.77-2-19.38-6.02-4.61-4.01-6.92-9.97-6.92-17.86v-16.87c-.01-8.1,2.41-14.16,7.27-18.18,4.85-4.02,11.19-6.03,19.01-6.03,7.89,0,14.21,2.04,18.96,6.12,4.75,4.08,7.13,10.35,7.13,18.8v9.64s-41.9.02-41.9.02v6.6c0,5.24,1.31,9.03,3.94,11.37,2.62,2.34,6.55,3.51,11.79,3.5,5.03,0,8.7-.7,11-2.1,2.3-1.4,4.05-3.67,5.24-6.81l10.16,2.93ZM1591.98,425.62v2.52s31.43-.01,31.43-.01v-1.57c0-5.66-1.31-9.78-3.93-12.36-2.62-2.58-6.55-3.87-11.79-3.87s-9.17,1.24-11.78,3.72c-2.62,2.48-3.93,6.34-3.92,11.58Z" fill="#1c1812"/>
    <path d="M1733.41,465.26l-.03-83.8h10.47s.03,74.37.03,74.37l36.66-.02v9.43s-47.14.02-47.14.02Z" fill="#1c1812"/>
    <path d="M1818.78,466.28c-5.31,0-10.04-1.41-14.19-4.24-4.16-2.83-6.24-7.38-6.24-13.67,0-5.52,1.79-9.85,5.39-12.99,3.59-3.14,7.8-4.72,12.62-4.72h21.79s0-9.02,0-9.02c0-3.35-1.12-6-3.36-7.96-2.24-1.95-5.62-2.93-10.16-2.93-4.61,0-8.05.68-10.32,2.05-2.27,1.36-4.07,4.39-5.39,9.06l-9.22-2.51c1.18-5.94,3.85-10.43,8.01-13.46,4.15-3.04,9.72-4.56,16.71-4.56,6.91,0,12.67,1.55,17.29,4.66,4.61,3.11,6.92,7.92,6.92,14.43v28.13c.01,3.78,1.06,6.14,3.16,7.09,2.1.94,5.24,1.06,9.43.36v9.53c-4.33.63-8.4.33-12.2-.89-3.81-1.22-5.89-4.52-6.24-9.9h-2.09c-1.95,3.21-4.89,5.94-8.8,8.17-3.91,2.24-8.27,3.36-13.09,3.36ZM1820.14,457.37c3.63,0,6.98-.65,10.06-1.95,3.07-1.3,5.72-3.57,7.96-6.8v-10.11s-18.86,0-18.86,0c-3,0-5.5.69-7.49,2.06-1.99,1.37-2.98,3.78-2.98,7.22,0,3.02.86,5.37,2.57,7.06,1.71,1.69,4.63,2.53,8.75,2.52Z" fill="#1c1812"/>
    <path d="M1900.18,466.24c-4.19,0-8.52-.63-12.99-1.88-4.47-1.25-8.59-3.07-12.36-5.44l-.03-77.52h10.48s.01,31.42.01,31.42h3.14c1.81-3.63,4.33-6.46,7.54-8.49,3.21-2.03,6.81-3.04,10.79-3.04,6.49,0,11.52,2.09,15.09,6.28,3.56,4.19,5.35,10.05,5.35,17.6v17.07c.01,7.61-2.36,13.51-7.11,17.71-4.75,4.19-11.38,6.29-19.9,6.29ZM1900.07,457.02c5.66,0,9.85-1.24,12.57-3.72,2.72-2.48,4.08-6.23,4.08-11.26v-16.76c0-4.75-1.06-8.28-3.15-10.58-2.1-2.3-5.24-3.46-9.43-3.45-3.42,0-6.67.91-9.74,2.73-3.07,1.82-6.11,4.58-9.11,8.28v30.8c2.25,1.33,4.57,2.32,6.98,2.98,2.41.66,5.01.99,7.8.99Z" fill="#1c1812"/>
  </g>
  <g>
    <polygon points="273.42 135.71 273.42 135.76 273.37 135.71 273.42 135.71" fill="#1c1812"/>
    <path d="M273.37,135.71l.05.05v-.05h-.05Z" fill="#1c1812"/>
    <polygon points="273.42 135.71 273.42 135.76 273.37 135.71 273.42 135.71" fill="#1c1812"/>
    <path d="M373.32,135.71h2.32c16.9-1.18,30.35-14.63,31.53-31.48,0,0,.05-3.5.05-4.07.82-17.98,15.71-32.25,33.9-32.25s32.66-13.96,33.85-31.58v-4.74c-1.13-16.9-14.63-30.35-31.48-31.53h-4.74c-17.1,1.19-30.71,15.04-31.53,32.2,0,0-.05,3.81-.05,4.07-1.24,17.62-15.92,31.58-33.85,31.58s-33.95,15.2-33.95,33.95-13.96,32.61-31.58,33.85h-4.74c-16.9-1.18-30.35-14.63-31.53-31.53l-.15-104.12h-67.8v104.12c-1.18,16.9-14.63,30.35-31.48,31.53l-4.74-.05h-.05c-17.67-1.29-31.53-15.92-31.53-33.9s-15.2-33.95-33.95-33.95c-17.72,0-32.2-13.5-33.8-30.76v-.15l-.26-5.36C66.62,14.63,53.12,1.19,36.27,0h-4.74C14.43,1.19.82,15.04,0,32.2v3.35c.82,17.98,15.71,32.25,33.9,32.25s32.66,13.96,33.85,31.63l.15,4.69c1.19,16.9,14.68,30.35,31.53,31.53l9.22.72h.05l.36.05h-.36c15.46,3.19,27.05,16.9,27.05,33.28,0,17.98,13.91,32.66,31.58,33.9h4.74c16.85-1.18,30.29-14.63,31.48-31.53,0,0,0-4.22.05-4.02.82-17.98,15.71-32.3,33.9-32.3h0c17.93,0,32.66,13.96,33.85,31.58v4.84c-1.24,16.85-14.68,30.19-31.48,31.38,0,0-3.5.05-4.02,0-17.47.88-31.43,14.84-32.25,32.25v3.35c-.05.21-.05.46-.05.67-1.18,16.9-14.63,30.35-31.48,31.53h-4.74c-17.67-1.24-31.58-15.92-31.58-33.9s-14.32-33.02-32.3-33.9c-.57.05-70.69.05-71.2,0-17.47.88-31.43,14.84-32.25,32.25v3.35c.82,17.16,14.43,31.02,31.53,32.2h72.54l.1.05c17.62,1.24,31.58,15.92,31.58,33.9s-15.2,33.95-33.95,33.95-32.66,13.91-33.9,31.58l-.15,4.69c-1.13,16.9-14.63,30.35-31.48,31.53l-2.37.05c-18.19,0-33.08,14.32-33.9,32.3v3.35c.82,17.16,14.43,31.02,31.53,32.2h4.74c16.85-1.18,30.35-14.63,31.48-31.53l.15-4.74c1.24-17.62,15.92-31.58,33.9-31.58l2.37-.05c17.62-1.24,31.58-15.92,31.58-33.9s15.2-33.9,33.95-33.9,32.61,13.91,33.85,31.58v104.12h67.8l.08-104.32c0-17.29,18.83-31.39,33.98-31.39,18.75,0,33.95,15.2,33.95,33.9s13.91,32.66,31.58,33.9l2.37.05c17.93,0,32.61,13.96,33.85,31.58,0,.26.05,4.07.05,4.07.82,17.16,14.43,31.02,31.53,32.2h4.74c16.85-1.18,30.35-14.63,31.48-31.53v-4.74c-1.18-17.62-15.92-31.58-33.85-31.58l-2.37-.05c-17.1-1.18-30.71-15.04-31.53-32.2-.05.21-.05.46-.05.67v-4.69c-1.24-17.67-15.92-31.58-33.85-31.58s-33.95-15.2-33.95-33.95-13.96-32.66-31.58-33.9h-4.74c-16.9,1.19-30.35,14.63-31.53,31.53v4.84c-1.18,17.62-16.07,31.48-34,31.48s-33.08-14.32-33.9-32.3c-.05.21-.05.46-.05.72v-4.74c0,.21,0,.46.05.67.77-16.49,13.4-29.93,29.57-31.99l6.7-.26c16.85-1.19,30.35-14.63,31.48-31.53l.15-4.74c1.18-17.05,15.04-30.71,32.2-31.53h3.35c17.98.88,32.3,15.71,32.3,33.9s13.91,32.66,31.58,33.9h72.54c16.85-1.19,30.35-14.63,31.48-31.53v-4.74c-1.18-17.05-14.99-30.71-32.2-31.53-.57.05-71.82,0-71.82,0-17.67-1.24-31.58-15.92-31.58-33.9s15.2-33.95,33.95-33.95ZM68.99,407.12h29.37M273.42,135.76l-.05-.05h.05v.05Z" fill="#1c1812"/>
  </g>
</svg>