<?xml version="1.0" encoding="UTF-8"?>
<svg id="Livello_1" xmlns="http://www.w3.org/2000/svg" version="1.1" viewBox="0 0 1967.1 570.9">
  <!-- Generator: Adobe Illustrator 29.2.1, SVG Export Plug-In . SVG Version: 2.1.0 Build 116)  -->
  <defs>
    <style>
      .st0 {
        fill: none;
      }

      .st1 {
        fill: #cad7d8;
      }
    </style>
  </defs>
  <g>
    <line class="st0" x1="82.8" y1="483.6" x2="82.9" y2="483.3"/>
    <polygon class="st1" points="327.5 162.9 327.5 162.9 327.4 162.9 327.5 162.9"/>
    <path class="st1" d="M327.4,162.9h0c0,0,0,0,0,0h0Z"/>
    <polygon class="st1" points="327.5 162.9 327.5 162.9 327.4 162.9 327.5 162.9"/>
    <path class="st1" d="M446.3,165.1h2.7c20-1.4,35.9-17.3,37.3-37.2,0,0,0-4.1,0-4.8,1-21.2,18.6-38.1,40.1-38.1s38.6-16.5,40-37.3v-5.6c-1.3-20-17.3-35.9-37.2-37.3h-5.6c-20.2,1.4-36.3,17.8-37.3,38.1,0,0,0,4.5,0,4.8-1.5,20.8-18.8,37.3-40,37.3s-40.1,18-40.1,40.1-16.5,38.5-37.3,40h-5.6c-20-1.4-35.9-17.3-37.3-37.3l-.2-123.1h-80.1v123.1c-1.4,20-17.3,35.9-37.2,37.3h-5.6c0,0,0,0,0,0-20.9-1.5-37.3-18.8-37.3-40.1s-18-40.1-40.1-40.1-38.1-15.9-39.9-36.3v-.2l-.3-6.3c-1.3-20-17.3-35.9-37.2-37.3h-5.6C22.1,6.2,6,22.5,5.1,42.8v4c1,21.3,18.6,38.1,40.1,38.1s38.6,16.5,40,37.4l.2,5.5c1.4,20,17.3,35.9,37.3,37.3l10.9.9h.5c0,0-.4,0-.4,0,18.3,3.8,32,20,32,39.3s16.4,38.6,37.3,40.1h5.6c19.9-1.4,35.8-17.3,37.2-37.3,0,0,0-5,0-4.8,1-21.2,18.6-38.2,40.1-38.2h0c21.2,0,38.6,16.5,40,37.3v5.7c-1.5,19.9-17.4,35.7-37.2,37.1,0,0-4.1,0-4.8,0-20.6,1-37.1,17.5-38.1,38.1v4c0,.2,0,.5,0,.8-1.4,20-17.3,35.9-37.2,37.3h-5.6c-20.9-1.5-37.3-18.8-37.3-40.1s-16.9-39-38.2-40.1c-.7,0-83.5,0-84.2,0-20.6,1-37.1,17.5-38.1,38.1v4c1,20.3,17,36.7,37.3,38.1h85.8c20.8,1.5,37.3,18.9,37.3,40.1s-18,40.1-40.1,40.1-38.6,16.4-40.1,37.3l-.2,5.5c-1.3,20-17.3,35.9-37.2,37.3h-2.8c-21.5,0-39.1,17-40.1,38.2v4c1,20.3,17,36.7,37.3,38.1h5.6c19.9-1.4,35.9-17.3,37.2-37.3l.2-5.6c1.5-20.8,18.8-37.3,40.1-37.3h2.8c20.8-1.5,37.3-18.9,37.3-40.1s18-40.1,40.1-40.1,38.5,16.4,40,37.3v123.1h80.1v-123.3c0-20.4,22.3-37.1,40.2-37.1s40.1,18,40.1,40.1,16.4,38.6,37.3,40.1h2.8c21.2,0,38.5,16.6,40,37.4,0,.3,0,4.8,0,4.8,1,20.3,17,36.7,37.3,38.1h5.6c19.9-1.4,35.9-17.3,37.2-37.3v-5.6c-1.4-20.8-18.8-37.3-40-37.3h-2.8c-20.2-1.5-36.3-17.8-37.3-38.1,0,.2,0,.5,0,.8v-5.5c-1.5-20.9-18.8-37.3-40-37.3s-40.1-18-40.1-40.1-16.5-38.6-37.3-40.1h-5.6c-20,1.4-35.9,17.3-37.3,37.3v5.7c-1.4,20.8-19,37.2-40.2,37.2s-39.1-16.9-40.1-38.2c0,.2,0,.5,0,.9v-5.6c0,.2,0,.5,0,.8.9-19.5,15.8-35.4,35-37.8l7.9-.3c19.9-1.4,35.9-17.3,37.2-37.3l.2-5.6c1.4-20.1,17.8-36.3,38.1-37.3h4c21.2,1,38.2,18.6,38.2,40.1s16.4,38.6,37.3,40.1h85.7c19.9-1.4,35.9-17.3,37.2-37.3v-5.6c-1.4-20.1-17.7-36.3-38.1-37.3-.7,0-84.9,0-84.9,0-20.9-1.5-37.3-18.8-37.3-40.1s18-40.1,40.1-40.1h0Z"/>
  </g>
  <path class="st1" d="M1091.2,120.2c-6.2-3.7-19.6-8.9-27.7-17-7.9-7.9-11.6-19.5-14.9-26.6-6.7-14.4-17.6-43.5-68.7-43.5h-279.6c0,.1.1,292.4.1,292.4l386.4-.2h0c17.3-1.3,31.2-15.8,32.4-33.9h0s0-95.5,0-95.5c0-42.8-6.2-62.8-28.1-75.8h0ZM1049.4,151.1v101.3s-279.2.1-279.2.1V106.3c0,0,235.9,0,235.9,0,22.8,0,43.3,15.6,43.3,44.9h0Z"/>
  <path class="st1" d="M1545.5,105.7c-18.2-7.8-31.1-16.2-38.8-35.4-8.2-20.4-24.8-37.1-50.7-37.1h-188.1c-31.3,0-41,24.3-48.4,34.9-7.4,10.6-18.4,22.5-36,32-21.3,11.5-35.9,30.8-35.8,68.3,0,.6,0,157.2,0,157.2h71.8s0-75.2,0-75.2h287.4c0-.1,0,75,0,75h71.8s0-145.9,0-145.9c0-41.2-7.8-62.9-33-73.8ZM1502.8,189.2h-279.5c0,.1.2-22.1.2-37.9,0-30.1,21.4-45,47.3-45h186.8c31.7,0,45.1,25.7,45.2,45.9v37.1s0,0,0,0Z"/>
  <path class="st1" d="M1886.8,218.5c0,19.5,39.6,17,55.5,31.5,12.9,11.8,15.8,29.7,15.8,36.3v39.2s-69.8,0-69.8,0c0,0,0-38.9,0-39.2-1.3-18.4-15.5-32.9-33.2-33.8.2,0,.5,0,.7,0h-177.1c0,0,0,73.1,0,73.1h-69.8s-.1-292.3-.1-292.3h69.8s0,156.1,0,156.1h165.5c32.6-.2,42.8-25.8,44-43.9,0-.3,0-112.3,0-112.3h69.8s0,92.5,0,92.5c0,25-6.7,47.3-25.7,63.1-20.2,16.8-45.8,9.4-45.6,29.8h0Z"/>
  <g>
    <path class="st1" d="M711.9,407.1h11.7c2,0,4,.2,5.8.7,1.8.5,3.4,1.1,4.9,1.9,1.6.8,3,1.9,4.3,3.2,1.2,1.3,2.3,2.7,3.1,4.3.9,1.6,1.5,3.5,2,5.4.5,2,.7,4.1.7,6.3v3.7c0,2.1-.2,4.2-.7,6.1-.4,1.9-1.1,3.7-1.9,5.2-.8,1.5-1.8,2.9-2.9,4.2s-2.4,2.3-3.8,3.2c-1.6,1-3.3,1.7-5.2,2.2-1.9.5-3.9.8-6.1.8h-12v-47.3h0ZM719.8,448.1h4.1c1.4,0,2.7-.2,3.8-.5,1.2-.3,2.2-.8,3.1-1.5,1-.6,1.8-1.5,2.5-2.5.8-1,1.4-2.1,1.8-3.4.4-1.1.7-2.3.9-3.5.2-1.3.3-2.6.3-4.1v-3.8c0-1.4-.1-2.8-.3-4.1-.2-1.3-.5-2.5-.9-3.5-.5-1.3-1.2-2.5-2.1-3.6s-1.9-2-3.1-2.6c-.9-.5-1.8-.9-2.9-1.1-1.1-.3-2.2-.4-3.5-.4h-3.8v34.6h0Z"/>
    <path class="st1" d="M760.4,443.6l-3.2,10.9h-8.1l15.4-47.3h6.9l15.1,47.3h-8.1l-3.2-10.9h-14.9ZM773.3,436.9l-5.4-18.7-5.5,18.7h11Z"/>
    <path class="st1" d="M800,439.7v14.8h-7.9v-47.3h7.9v22.3l4.4-5.8,12.5-16.5h9.5l-16.2,20.8,17,26.5h-9.4l-12.8-20.5-5.1,5.7h0Z"/>
    <path class="st1" d="M896,439.3c-.5-.8-1.1-1.6-1.9-2.3-.9-.6-1.9-1.2-3.1-1.7-1.2-.5-2.5-1-4-1.4-2.2-.6-4.3-1.4-6.2-2.3-1.9-.9-3.5-2-4.8-3.1-1.3-1.2-2.4-2.5-3.1-4-.8-1.5-1.1-3.2-1.1-5s.4-3.8,1.3-5.4c.9-1.6,2-3,3.5-4.1,1.5-1.1,3.2-2,5.2-2.6,2-.6,4-.9,6.2-.9s4.4.4,6.4,1.1c2,.7,3.7,1.7,5.2,2.9,1.5,1.3,2.6,2.8,3.5,4.6.9,1.8,1.3,3.7,1.3,5.9h-7.7c-.1-1.2-.4-2.3-.8-3.3s-1-1.8-1.7-2.5c-.7-.7-1.6-1.2-2.7-1.6-1-.4-2.3-.6-3.6-.6s-2.3.2-3.3.5-1.9.8-2.6,1.3c-.7.6-1.3,1.3-1.7,2.1s-.6,1.7-.6,2.8c0,1.1.3,2,.8,2.8s1.3,1.5,2.2,2.1c.9.6,2,1.1,3.2,1.6s2.5.9,3.8,1.3c1.7.5,3.3,1.1,4.9,1.8,1.6.7,3.1,1.5,4.4,2.5,1.7,1.3,3,2.8,4,4.5,1,1.7,1.5,3.8,1.5,6s-.4,4-1.3,5.6-2,2.9-3.5,4c-1.5,1.1-3.2,1.9-5.2,2.5-2,.5-4,.8-6.2.8s-4.6-.4-6.9-1.1c-2.2-.7-4.2-1.8-5.9-3.2-1.5-1.3-2.8-2.8-3.7-4.6-.9-1.8-1.4-3.8-1.4-6h7.8c.1,1.5.4,2.7.9,3.8.5,1.1,1.2,2,2.1,2.6.9.7,1.9,1.2,3.1,1.6,1.2.4,2.5.5,3.9.5s2.3-.1,3.3-.4,1.9-.7,2.7-1.3c.7-.5,1.3-1.2,1.8-2,.5-.8.7-1.7.7-2.8s-.2-2.1-.7-2.9h0Z"/>
    <path class="st1" d="M931,413.6v40.9h-7.8v-40.9h-14.5v-6.5h36.8v6.5h-14.6,0Z"/>
    <path class="st1" d="M982.7,438.8c0,2.5-.4,4.7-1.1,6.7-.8,2-1.8,3.7-3.2,5.1-1.4,1.4-3,2.5-5,3.3s-4.1,1.2-6.5,1.2-4.5-.4-6.4-1.1c-1.9-.8-3.5-1.9-4.9-3.3-1.4-1.4-2.4-3.1-3.2-5.2-.8-2-1.1-4.2-1.2-6.7v-31.6h7.8v31.6c0,1.5.3,2.9.6,4.1.3,1.2.9,2.3,1.5,3.2.7.8,1.5,1.5,2.4,1.9s2,.7,3.3.7,2.4-.2,3.4-.7c1-.5,1.8-1.1,2.5-2,.7-.9,1.2-1.9,1.5-3.2.3-1.2.5-2.6.6-4v-31.6h7.8v31.6s0,0,0,0Z"/>
    <path class="st1" d="M991.5,407.1h11.7c2,0,4,.2,5.8.7,1.8.5,3.4,1.1,4.9,1.9,1.6.8,3,1.9,4.3,3.2,1.2,1.3,2.3,2.7,3.1,4.3.9,1.6,1.5,3.5,2,5.4s.7,4.1.7,6.3v3.7c0,2.1-.2,4.2-.7,6.1-.4,1.9-1.1,3.7-1.9,5.2-.8,1.5-1.8,2.9-2.9,4.2-1.1,1.3-2.4,2.3-3.8,3.2-1.6,1-3.3,1.7-5.2,2.2s-3.9.8-6.1.8h-12v-47.3h0ZM999.4,448.1h4.1c1.4,0,2.7-.2,3.8-.5,1.2-.3,2.2-.8,3.1-1.5,1-.6,1.8-1.5,2.5-2.5.8-1,1.4-2.1,1.8-3.4.4-1.1.7-2.3.9-3.5s.3-2.6.3-4.1v-3.8c0-1.4-.1-2.8-.3-4.1s-.5-2.5-.9-3.5c-.5-1.3-1.2-2.5-2.1-3.6s-1.9-2-3.1-2.6c-.9-.5-1.8-.9-2.9-1.1-1.1-.3-2.2-.4-3.5-.4h-3.8v34.6h0Z"/>
    <path class="st1" d="M1060.9,407.1v6.5h-10.1v34.4h10.1v6.4h-27.9v-6.4h9.9v-34.4h-9.9v-6.5h27.9Z"/>
    <path class="st1" d="M1103.3,439.5c-.3,1.8-.8,3.5-1.4,5-.7,1.6-1.5,3-2.5,4.4s-2.1,2.5-3.4,3.4c-1.3.9-2.7,1.5-4.2,2s-3.2.8-5,.8-3.6-.3-5.2-.8c-1.6-.5-3-1.3-4.2-2.2-1.3-1-2.4-2.1-3.3-3.4s-1.7-2.8-2.4-4.4c-.6-1.5-1.1-3.2-1.4-4.9-.3-1.7-.4-3.5-.4-5.4v-6.2c0-1.9.2-3.8.5-5.6s.8-3.5,1.5-5.1c.6-1.5,1.4-3,2.3-4.2.9-1.3,2-2.4,3.3-3.4,1.2-.9,2.6-1.6,4.1-2.2s3.3-.8,5.1-.8,3.6.3,5.2.8,3,1.2,4.3,2.2,2.3,2,3.3,3.3c.9,1.3,1.7,2.6,2.3,4.1.7,1.6,1.2,3.3,1.6,5.1.3,1.8.5,3.7.5,5.7v6.2c0,1.9-.2,3.8-.5,5.5h0ZM1095.8,424.1c-.1-1.1-.3-2.2-.6-3.3-.3-1.2-.8-2.3-1.3-3.3s-1.2-1.8-1.9-2.5c-.7-.6-1.4-1.1-2.3-1.4-.9-.4-1.8-.5-3-.5s-2,.2-2.9.5c-.8.3-1.6.8-2.2,1.4-.8.7-1.4,1.6-1.9,2.5-.5,1-.9,2.1-1.2,3.3-.3,1-.4,2.1-.6,3.3-.1,1.2-.2,2.3-.2,3.5v6.3c0,1.1,0,2.3.2,3.4s.3,2.2.6,3.2c.3,1.2.7,2.3,1.2,3.3s1.1,1.9,1.8,2.5c.7.6,1.4,1.2,2.3,1.5.9.4,1.9.6,3,.6s2.1-.2,3-.5,1.7-.9,2.3-1.5c.8-.7,1.4-1.6,1.9-2.5.5-1,.9-2.1,1.2-3.3.3-1,.4-2.1.6-3.3.1-1.1.2-2.3.2-3.5v-6.3c0-1.2,0-2.4-.2-3.5h0Z"/>
    <path class="st1" d="M720.4,527.1l-3.2,10.9h-8.1l15.4-47.3h6.9l15.1,47.3h-8.1l-3.2-10.9h-14.9ZM733.4,520.4l-5.4-18.7-5.5,18.7h11Z"/>
    <path class="st1" d="M783,522.3c0,2.5-.4,4.7-1.1,6.7-.8,2-1.8,3.7-3.2,5.2-1.4,1.4-3,2.5-5,3.3-1.9.8-4.1,1.2-6.5,1.2s-4.5-.4-6.4-1.2c-1.9-.8-3.5-1.9-4.9-3.3-1.4-1.4-2.4-3.2-3.2-5.2s-1.1-4.2-1.2-6.7v-31.6h7.8v31.6c0,1.5.3,2.9.6,4.1.3,1.2.9,2.3,1.5,3.2.7.8,1.5,1.5,2.4,1.9s2,.7,3.3.7,2.4-.2,3.4-.7c1-.5,1.8-1.1,2.5-2,.7-.9,1.2-1.9,1.5-3.2.3-1.2.5-2.6.6-4v-31.6h7.8v31.6s0,0,0,0Z"/>
    <path class="st1" d="M791.8,490.7h11.7c2,0,4,.2,5.8.7,1.8.5,3.4,1.1,4.9,1.9,1.6.8,3,1.9,4.3,3.2,1.2,1.3,2.3,2.7,3.1,4.3.9,1.6,1.5,3.5,2,5.4.5,2,.7,4.1.7,6.3v3.7c0,2.1-.2,4.2-.7,6.1-.4,1.9-1.1,3.7-1.9,5.2-.8,1.5-1.8,2.9-2.9,4.2-1.1,1.3-2.4,2.3-3.8,3.2-1.6,1-3.3,1.7-5.2,2.2-1.9.5-3.9.8-6.1.8h-12v-47.3h0ZM799.7,531.7h4.1c1.4,0,2.7-.2,3.8-.5,1.2-.3,2.2-.8,3.1-1.5,1-.7,1.8-1.5,2.5-2.5.8-1,1.4-2.1,1.8-3.4.4-1.1.7-2.3.9-3.5.2-1.3.3-2.6.3-4.1v-3.8c0-1.4-.1-2.8-.3-4.1-.2-1.3-.5-2.5-.9-3.5-.5-1.3-1.2-2.5-2.1-3.6s-1.9-2-3.1-2.6c-.9-.5-1.8-.9-2.9-1.1-1.1-.3-2.2-.4-3.5-.4h-3.8v34.6h0Z"/>
    <path class="st1" d="M861.2,490.7v6.5h-10.1v34.4h10.1v6.4h-27.9v-6.4h9.9v-34.4h-9.9v-6.5h27.9Z"/>
    <path class="st1" d="M903.6,523c-.3,1.8-.8,3.5-1.5,5-.7,1.6-1.5,3-2.5,4.4s-2.1,2.5-3.4,3.4c-1.3.9-2.7,1.5-4.2,2s-3.2.8-5,.8-3.6-.3-5.2-.8c-1.6-.5-3-1.3-4.2-2.2-1.3-1-2.4-2.1-3.3-3.4s-1.7-2.8-2.4-4.4c-.6-1.5-1.1-3.2-1.4-4.9s-.5-3.5-.5-5.4v-6.2c0-1.9.2-3.8.5-5.6s.8-3.5,1.5-5.1c.6-1.5,1.4-3,2.3-4.2.9-1.3,2-2.4,3.3-3.4,1.2-.9,2.6-1.6,4.1-2.2s3.3-.8,5.1-.8,3.6.3,5.2.8,3,1.2,4.3,2.2,2.3,2,3.3,3.3c.9,1.3,1.7,2.6,2.3,4.1.7,1.6,1.2,3.3,1.6,5.1s.5,3.7.5,5.7v6.2c0,1.9-.2,3.8-.5,5.5h0ZM896.1,507.7c-.1-1.1-.3-2.2-.6-3.3-.3-1.2-.8-2.3-1.3-3.3s-1.2-1.8-1.9-2.5c-.7-.6-1.4-1.1-2.3-1.4s-1.8-.5-3-.5-2,.2-2.9.5c-.8.3-1.6.8-2.2,1.4-.8.7-1.4,1.6-1.9,2.5-.5,1-.9,2.1-1.2,3.3-.3,1-.5,2.1-.6,3.3-.1,1.2-.2,2.3-.2,3.5v6.3c0,1.2,0,2.3.2,3.4s.3,2.2.5,3.2c.3,1.2.7,2.3,1.2,3.3s1.1,1.9,1.8,2.5c.7.7,1.5,1.2,2.3,1.5.9.4,1.9.6,3,.6s2.1-.2,3-.5,1.7-.9,2.3-1.5c.8-.7,1.4-1.6,1.9-2.5.5-1,.9-2.1,1.2-3.3.3-1,.5-2.1.6-3.3s.2-2.3.2-3.5v-6.3c0-1.2,0-2.4-.2-3.5h0Z"/>
    <path class="st1" d="M982.3,529.7c-.9,1.9-2,3.5-3.4,4.8-1.4,1.3-3.1,2.4-5.1,3.1s-4.1,1.1-6.5,1.1-3.7-.3-5.4-.8c-1.6-.5-3.1-1.3-4.4-2.3-1.2-.9-2.3-2-3.2-3.3s-1.7-2.7-2.3-4.2c-.6-1.5-1.1-3.2-1.4-4.9s-.5-3.6-.5-5.6v-6.5c0-1.8.2-3.6.5-5.3s.8-3.3,1.4-4.8c.7-1.7,1.5-3.2,2.5-4.6s2.2-2.5,3.6-3.5c1.3-.9,2.7-1.6,4.2-2.1s3.2-.8,5.1-.8,4.7.4,6.7,1.1c2,.7,3.6,1.8,5,3.1,1.4,1.4,2.5,3,3.3,4.9s1.3,4.1,1.6,6.4h-7.8c-.1-1.4-.4-2.7-.8-3.8-.4-1.1-1-2.1-1.6-2.9-.7-.8-1.6-1.4-2.6-1.8s-2.3-.6-3.7-.6-1.9.1-2.8.4c-.8.3-1.5.7-2.2,1.2-.9.6-1.6,1.5-2.2,2.5-.6,1-1,2.1-1.4,3.4-.3,1.1-.5,2.2-.6,3.5s-.2,2.5-.2,3.8v6.5c0,1.6,0,3.1.3,4.5.2,1.4.5,2.7.9,3.8.3,1,.7,1.8,1.2,2.6.5.8,1,1.5,1.7,2,.7.6,1.5,1.1,2.3,1.4.9.3,1.9.5,3,.5s2.5-.2,3.6-.6,1.9-1,2.7-1.7c.7-.7,1.3-1.7,1.7-2.8s.7-2.4.8-3.8h7.8c-.2,2.3-.8,4.4-1.6,6.3h0Z"/>
    <path class="st1" d="M999.8,519.6v18.4h-7.8v-47.3h15c2.5,0,4.7.3,6.8.9,2.1.6,3.8,1.5,5.3,2.7,1.5,1.2,2.6,2.7,3.4,4.4.8,1.8,1.2,3.8,1.2,6.2s-.2,3.1-.6,4.4-1,2.5-1.8,3.6-1.7,2-2.7,2.8-2.2,1.5-3.5,2.1l10.1,19.8v.4h-8.3l-9.1-18.4h-8ZM1007.1,513.3c1.4,0,2.6-.2,3.8-.6,1.1-.4,2.1-1,2.8-1.7.7-.6,1.2-1.5,1.6-2.4s.6-2,.6-3.2-.2-2.6-.6-3.6-1-1.9-1.9-2.6c-.8-.6-1.7-1.1-2.8-1.5s-2.3-.5-3.6-.5h-7.2v16.2h7.3Z"/>
    <path class="st1" d="M1040.1,516.8v14.8h22.8v6.4h-30.7v-47.3h30.5v6.5h-22.7v13.3h19.6v6.3h-19.6,0Z"/>
    <path class="st1" d="M1079.9,527.1l-3.2,10.9h-8.1l15.4-47.3h6.9l15.1,47.3h-8.1l-3.2-10.9h-14.9ZM1092.8,520.4l-5.4-18.7-5.5,18.7h11Z"/>
    <path class="st1" d="M1130.7,497.1v40.9h-7.8v-40.9h-14.5v-6.5h36.8v6.5h-14.6Z"/>
    <path class="st1" d="M1180.7,490.7v6.5h-10.1v34.4h10.1v6.4h-27.9v-6.4h9.9v-34.4h-9.9v-6.5h27.9Z"/>
    <path class="st1" d="M1188.3,490.7h8.6l9,32.8.8,2.8.8-2.9,9.1-32.7h8.5l-14.6,47.3h-7.6l-14.6-47.3h0Z"/>
    <path class="st1" d="M1239.8,516.8v14.8h22.8v6.4h-30.7v-47.3h30.5v6.5h-22.7v13.3h19.6v6.3h-19.6,0Z"/>
    <path class="st1" d="M1342.5,531.6v6.4h-30.4v-47.3h7.8v40.9h22.6Z"/>
    <path class="st1" d="M1359.4,527.1l-3.2,10.9h-8.1l15.4-47.3h6.9l15.1,47.3h-8.1l-3.2-10.9h-14.9ZM1372.4,520.4l-5.4-18.7-5.5,18.7h11Z"/>
    <path class="st1" d="M1391.2,490.7h15.1c2.3,0,4.4.2,6.5.8,2,.5,3.8,1.3,5.2,2.3s2.6,2.4,3.5,4c.8,1.6,1.2,3.5,1.2,5.7,0,1.3-.2,2.6-.7,3.8-.4,1.2-1.1,2.2-1.9,3.1-.6.6-1.2,1.2-2,1.7-.7.5-1.6.9-2.5,1.3h0c1.4.4,2.6,1,3.6,1.7,1,.7,1.8,1.5,2.5,2.4.7,1,1.2,2,1.6,3.2s.5,2.4.5,3.7c0,2.2-.4,4.2-1.2,6s-2,3.1-3.4,4.3c-1.4,1.2-3.2,2-5.2,2.7-2,.6-4.2.9-6.5.9h-16.4v-47.3h0ZM1406.5,510.7c1.3,0,2.4-.2,3.5-.5s2-.8,2.7-1.4c.7-.6,1.2-1.2,1.6-2s.6-1.7.6-2.8-.2-2.1-.5-2.9-.9-1.5-1.5-2c-.7-.6-1.7-1.1-2.8-1.4s-2.3-.5-3.7-.5h-7.4v13.5h7.5ZM1399.1,531.6h8.6c1.2,0,2.4-.2,3.4-.5,1-.3,1.9-.8,2.6-1.4.8-.6,1.4-1.4,1.8-2.3s.6-2,.6-3.1-.2-2.2-.5-3.2-.9-1.7-1.6-2.4-1.5-1.2-2.5-1.5-2.1-.5-3.4-.6h-9v15h0Z"/>
  </g>
</svg>