<?xml version="1.0" encoding="UTF-8"?>
<svg id="Livello_1" data-name="Livello 1" xmlns="http://www.w3.org/2000/svg" viewBox="0 0 1856.58 541.24">
  <line x1="74.91" y1="453.32" x2="75.01" y2="453.03" fill="none"/>
  <path d="M425.35,154.64h2.6c19.28-1.35,34.61-16.68,35.96-35.86v-4.63c.96-20.44,17.93-36.73,38.66-36.73s37.21-15.91,38.56-35.96v-5.4c-1.25-19.28-16.68-34.61-35.86-35.96h-5.4c-19.47,1.35-35,17.16-35.96,36.73v4.63c-1.45,20.05-18.12,35.96-38.56,35.96s-38.66,17.35-38.66,38.66-15.91,37.12-35.96,38.56h-5.4c-19.28-1.35-34.61-16.68-35.96-35.96l-.19-118.68h-77.22v118.68c-1.35,19.28-16.68,34.61-35.86,35.96h-5.4c-20.15-1.45-35.96-18.12-35.96-38.66s-17.35-38.66-38.66-38.66-36.73-15.33-38.47-35v-.19l-.29-6.07C76.07,16.78,60.64,1.45,41.46.1h-5.4C16.39,1.45.87,17.16,0,36.73v3.86c.96,20.53,17.93,36.73,38.66,36.73s37.21,15.91,38.56,36.06l.19,5.3c1.35,19.28,16.68,34.61,35.96,35.96l10.51.87h.48-.39c17.64,3.66,30.85,19.28,30.85,37.89s15.81,37.21,35.96,38.66h5.4c19.19-1.35,34.51-16.68,35.86-35.96,0,0,0-4.82,0-4.63.96-20.44,17.93-36.83,38.66-36.83h0c20.44,0,37.21,15.91,38.56,35.96v5.5c-1.45,19.19-16.78,34.42-35.86,35.77h-4.63c-19.86.96-35.77,16.87-36.73,36.73v4.63c-1.35,19.28-16.68,34.61-35.86,35.96h-5.4c-20.15-1.45-35.96-18.12-35.96-38.66s-16.29-37.6-36.83-38.66H36.83c-19.86.96-35.77,16.87-36.73,36.73v3.86c.96,19.57,16.39,35.38,35.96,36.73h82.72c20.05,1.45,35.96,18.22,35.96,38.66s-17.35,38.66-38.66,38.66-37.21,15.81-38.66,35.96l-.19,5.3c-1.25,19.28-16.68,34.61-35.86,35.96h-2.7c-20.73,0-37.7,16.39-38.66,36.83v3.86c.96,19.57,16.39,35.38,35.96,36.73h5.4c19.19-1.35,34.61-16.68,35.86-35.96l.19-5.4c1.45-20.05,18.12-35.96,38.66-35.96h2.7c20.05-1.45,35.96-18.22,35.96-38.66s17.35-38.66,38.66-38.66,37.12,15.81,38.56,35.96v118.68h77.22v-118.87c0-19.67,21.5-35.77,38.76-35.77s38.66,17.35,38.66,38.66,15.81,37.21,35.96,38.66h2.7c20.44,0,37.12,16,38.56,36.06v4.63c.96,19.57,16.39,35.38,35.96,36.73h5.4c19.19-1.35,34.61-16.68,35.86-35.96v-5.4c-1.35-20.05-18.12-35.96-38.56-35.96h-2.7c-19.47-1.45-35-17.16-35.96-36.73v.77-5.3c-1.45-20.15-18.12-35.96-38.56-35.96s-38.66-17.35-38.66-38.66-15.91-37.21-35.96-38.66h-5.4c-19.28,1.35-34.61,16.68-35.96,35.96v5.5c-1.35,20.05-18.32,35.86-38.76,35.86s-37.7-16.29-38.66-36.83v.87-5.4.77c.87-18.8,15.23-34.13,33.74-36.44l7.62-.29c19.19-1.35,34.61-16.68,35.86-35.96l.19-5.4c1.35-19.38,17.16-35,36.73-35.96h3.86c20.44.96,36.83,17.93,36.83,38.66s15.81,37.21,35.96,38.66h82.62c19.19-1.35,34.61-16.68,35.86-35.96v-5.4c-1.35-19.38-17.06-35-36.73-35.96h-81.85c-20.15-1.45-35.96-18.12-35.96-38.66s17.35-38.66,38.66-38.66h0l.1-.1Z" fill="#cad7d8"/>
  <g>
    <path d="M1049.46,148.22c-5.77-3.44-18.25-8.29-25.79-15.83-7.36-7.36-10.8-18.16-13.87-24.77-6.24-13.41-16.39-40.5-63.96-40.5h-260.32c0,.09.09,272.24.09,272.24l359.76-.19h0c16.11-1.21,29.05-14.71,30.17-31.56h0v-88.91c0-39.85-5.77-58.47-26.16-70.57h0l.09.09ZM1010.54,176.99v94.31l-259.95.09v-136.12h219.63c21.23,0,40.31,14.52,40.31,41.8h0v-.09Z" fill="#cad7d8"/>
    <path d="M1472.43,134.72c-16.94-7.26-28.96-15.08-36.12-32.96-7.63-18.99-23.09-34.54-47.2-34.54h-175.13c-29.14,0-38.17,22.62-45.06,32.49-6.89,9.87-17.13,20.95-33.52,29.79-19.83,10.71-33.42,28.68-33.33,63.59v146.36h66.85v-70.01h267.58c0-.09,0,69.83,0,69.83h66.85v-135.84c0-38.36-7.26-58.56-30.72-68.71h-.19ZM1432.68,212.46h-260.23c0,.09.19-20.58.19-35.29,0-28.02,19.92-41.9,44.04-41.9h173.92c29.51,0,41.99,23.93,42.08,42.74v34.54h0v-.09Z" fill="#cad7d8"/>
    <path d="M1790.2,239.74c0,18.16,36.87,15.83,51.67,29.33,12.01,10.99,14.71,27.65,14.71,33.8v36.5h-64.99v-36.5c-1.21-17.13-14.43-30.63-30.91-31.47h.65-164.89v68.06h-64.99l-.09-272.14h64.99v145.34h154.09c30.35-.19,39.85-24.02,40.97-40.87v-104.56h64.99v86.12c0,23.28-6.24,44.04-23.93,58.75-18.81,15.64-42.64,8.75-42.46,27.75h0l.19-.09Z" fill="#cad7d8"/>
    <path d="M698.77,458.1l-4.29,14.62h-10.86l20.65-63.42h9.25l20.25,63.42h-10.86l-4.29-14.62h-19.98.13ZM716.2,449.12l-7.24-25.07-7.37,25.07h14.75-.13Z" fill="#cad7d8"/>
    <path d="M782.71,451.66c0,3.35-.54,6.3-1.47,8.98-1.07,2.68-2.41,4.96-4.29,6.97-1.88,1.88-4.02,3.35-6.7,4.42-2.55,1.07-5.5,1.61-8.72,1.61s-6.03-.54-8.58-1.61c-2.55-1.07-4.69-2.55-6.57-4.42-1.88-1.88-3.22-4.29-4.29-6.97s-1.47-5.63-1.61-8.98v-42.37h10.46v42.37c0,2.01.4,3.89.8,5.5.4,1.61,1.21,3.08,2.01,4.29.94,1.07,2.01,2.01,3.22,2.55s2.68.94,4.42.94,3.22-.27,4.56-.94,2.41-1.47,3.35-2.68,1.61-2.55,2.01-4.29c.4-1.61.67-3.49.8-5.36v-42.37h10.46v42.37h.13Z" fill="#cad7d8"/>
    <path d="M794.51,409.29h15.69c2.68,0,5.36.27,7.78.94s4.56,1.47,6.57,2.55c2.15,1.07,4.02,2.55,5.77,4.29,1.61,1.74,3.08,3.62,4.16,5.77,1.21,2.15,2.01,4.69,2.68,7.24.67,2.68.94,5.5.94,8.45v4.96c0,2.82-.27,5.63-.94,8.18-.54,2.55-1.47,4.96-2.55,6.97-1.07,2.01-2.41,3.89-3.89,5.63-1.47,1.74-3.22,3.08-5.1,4.29-2.15,1.34-4.42,2.28-6.97,2.95-2.55.67-5.23,1.07-8.18,1.07h-16.09v-63.42h0l.13.13ZM805.1,464.27h5.5c1.88,0,3.62-.27,5.1-.67,1.61-.4,2.95-1.07,4.16-2.01,1.34-.94,2.41-2.01,3.35-3.35,1.07-1.34,1.88-2.82,2.41-4.56.54-1.47.94-3.08,1.21-4.69.27-1.74.4-3.49.4-5.5v-5.1c0-1.88-.13-3.75-.4-5.5-.27-1.74-.67-3.35-1.21-4.69-.67-1.74-1.61-3.35-2.82-4.83s-2.55-2.68-4.16-3.49c-1.21-.67-2.41-1.21-3.89-1.47-1.47-.4-2.95-.54-4.69-.54h-5.1v46.39h.13Z" fill="#cad7d8"/>
    <path d="M887.56,409.29v8.72h-13.54v46.13h13.54v8.58h-37.41v-8.58h13.27v-46.13h-13.27v-8.72h37.41Z" fill="#cad7d8"/>
    <path d="M944.42,452.6c-.4,2.41-1.07,4.69-2.01,6.7-.94,2.15-2.01,4.02-3.35,5.9-1.34,1.88-2.82,3.35-4.56,4.56-1.74,1.21-3.62,2.01-5.63,2.68s-4.29,1.07-6.7,1.07-4.83-.4-6.97-1.07c-2.15-.67-4.02-1.74-5.63-2.95-1.74-1.34-3.22-2.82-4.42-4.56-1.21-1.74-2.28-3.75-3.22-5.9-.8-2.01-1.47-4.29-1.88-6.57s-.67-4.69-.67-7.24v-8.31c0-2.55.27-5.1.67-7.51.4-2.41,1.07-4.69,2.01-6.84.8-2.01,1.88-4.02,3.08-5.63,1.21-1.74,2.68-3.22,4.42-4.56,1.61-1.21,3.49-2.15,5.5-2.95s4.42-1.07,6.84-1.07,4.83.4,6.97,1.07,4.02,1.61,5.77,2.95,3.08,2.68,4.42,4.42c1.21,1.74,2.28,3.49,3.08,5.5.94,2.15,1.61,4.42,2.15,6.84s.67,4.96.67,7.64v8.31c0,2.55-.27,5.1-.67,7.37h0l.13.13ZM934.36,432.09c-.13-1.47-.4-2.95-.8-4.42-.4-1.61-1.07-3.08-1.74-4.42s-1.61-2.41-2.55-3.35c-.94-.8-1.88-1.47-3.08-1.88s-2.41-.67-4.02-.67-2.68.27-3.89.67c-1.07.4-2.15,1.07-2.95,1.88-1.07.94-1.88,2.15-2.55,3.35-.67,1.34-1.21,2.82-1.61,4.42-.4,1.34-.67,2.82-.8,4.42-.13,1.61-.27,3.08-.27,4.69v8.45c0,1.61,0,3.08.27,4.56s.4,2.95.67,4.29c.4,1.61.94,3.08,1.61,4.42s1.47,2.55,2.41,3.35c.94.94,2.01,1.61,3.08,2.01,1.21.54,2.55.8,4.02.8s2.82-.27,4.02-.67,2.28-1.21,3.08-2.01c1.07-.94,1.88-2.15,2.55-3.35.67-1.34,1.21-2.82,1.61-4.42.4-1.34.67-2.82.8-4.42s.27-3.08.27-4.69v-8.45c0-1.61,0-3.22-.27-4.69h0l.13.13Z" fill="#cad7d8"/>
    <path d="M1049.94,461.59c-1.21,2.55-2.68,4.69-4.56,6.44-1.88,1.74-4.16,3.22-6.84,4.16-2.68.94-5.5,1.47-8.72,1.47s-4.96-.4-7.24-1.07c-2.15-.67-4.16-1.74-5.9-3.08-1.61-1.21-3.08-2.68-4.29-4.42-1.21-1.74-2.28-3.62-3.08-5.63s-1.47-4.29-1.88-6.57-.67-4.83-.67-7.51v-8.72c0-2.41.27-4.83.67-7.11s1.07-4.42,1.88-6.44c.94-2.28,2.01-4.29,3.35-6.17,1.34-1.88,2.95-3.35,4.83-4.69,1.74-1.21,3.62-2.15,5.63-2.82s4.29-1.07,6.84-1.07,6.3.54,8.98,1.47c2.68.94,4.83,2.41,6.7,4.16,1.88,1.88,3.35,4.02,4.42,6.57s1.74,5.5,2.15,8.58h-10.46c-.13-1.88-.54-3.62-1.07-5.1-.54-1.47-1.34-2.82-2.15-3.89-.94-1.07-2.15-1.88-3.49-2.41-1.34-.54-3.08-.8-4.96-.8s-2.55.13-3.75.54c-1.07.4-2.01.94-2.95,1.61-1.21.8-2.15,2.01-2.95,3.35-.8,1.34-1.34,2.82-1.88,4.56-.4,1.47-.67,2.95-.8,4.69s-.27,3.35-.27,5.1v8.72c0,2.15,0,4.16.4,6.03.27,1.88.67,3.62,1.21,5.1.4,1.34.94,2.41,1.61,3.49.67,1.07,1.34,2.01,2.28,2.68.94.8,2.01,1.47,3.08,1.88,1.21.4,2.55.67,4.02.67s3.35-.27,4.83-.8c1.47-.54,2.55-1.34,3.62-2.28.94-.94,1.74-2.28,2.28-3.75s.94-3.22,1.07-5.1h10.46c-.27,3.08-1.07,5.9-2.15,8.45h0l-.27-.27Z" fill="#cad7d8"/>
    <path d="M1073.41,448.04v24.67h-10.46v-63.42h20.11c3.35,0,6.3.4,9.12,1.21s5.1,2.01,7.11,3.62c2.01,1.61,3.49,3.62,4.56,5.9,1.07,2.41,1.61,5.1,1.61,8.31s-.27,4.16-.8,5.9-1.34,3.35-2.41,4.83c-1.07,1.47-2.28,2.68-3.62,3.75s-2.95,2.01-4.69,2.82l13.54,26.55v.54h-11.13l-12.2-24.67h-10.73ZM1083.2,439.6c1.88,0,3.49-.27,5.1-.8,1.47-.54,2.82-1.34,3.75-2.28.94-.8,1.61-2.01,2.15-3.22s.8-2.68.8-4.29-.27-3.49-.8-4.83-1.34-2.55-2.55-3.49c-1.07-.8-2.28-1.47-3.75-2.01-1.47-.54-3.08-.67-4.83-.67h-9.65v21.72h9.79v-.13Z" fill="#cad7d8"/>
    <path d="M1127.45,444.29v19.84h30.57v8.58h-41.16v-63.42h40.9v8.72h-30.44v17.83h26.28v8.45h-26.28.13Z" fill="#cad7d8"/>
    <path d="M1180.81,458.1l-4.29,14.62h-10.86l20.65-63.42h9.25l20.25,63.42h-10.86l-4.29-14.62h-19.98.13ZM1198.11,449.12l-7.24-25.07-7.37,25.07h14.75-.13Z" fill="#cad7d8"/>
    <path d="M1248.93,417.87v54.84h-10.46v-54.84h-19.44v-8.72h49.34v8.72h-19.58.13Z" fill="#cad7d8"/>
    <path d="M1315.97,409.29v8.72h-13.54v46.13h13.54v8.58h-37.41v-8.58h13.27v-46.13h-13.27v-8.72h37.41Z" fill="#cad7d8"/>
    <path d="M1326.17,409.29h11.53l12.07,43.98,1.07,3.75,1.07-3.89,12.2-43.85h11.4l-19.58,63.42h-10.19l-19.58-63.42h0Z" fill="#cad7d8"/>
    <path d="M1395.22,444.29v19.84h30.57v8.58h-41.16v-63.42h40.9v8.72h-30.44v17.83h26.28v8.45h-26.28.13Z" fill="#cad7d8"/>
    <path d="M1532.93,464.13v8.58h-40.76v-63.42h10.46v54.84h30.3Z" fill="#cad7d8"/>
    <path d="M1555.59,458.1l-4.29,14.62h-10.86l20.65-63.42h9.25l20.25,63.42h-10.86l-4.29-14.62h-19.98.13ZM1573.02,449.12l-7.24-25.07-7.37,25.07h14.75-.13Z" fill="#cad7d8"/>
    <path d="M1598.23,409.29h20.25c3.08,0,5.9.27,8.72,1.07,2.68.67,5.1,1.74,6.97,3.08,1.88,1.34,3.49,3.22,4.69,5.36,1.07,2.15,1.61,4.69,1.61,7.64,0,1.74-.27,3.49-.94,5.1-.54,1.61-1.47,2.95-2.55,4.16-.8.8-1.61,1.61-2.68,2.28-.94.67-2.15,1.21-3.35,1.74h0c1.88.54,3.49,1.34,4.83,2.28s2.41,2.01,3.35,3.22c.94,1.34,1.61,2.68,2.15,4.29.54,1.61.67,3.22.67,4.96,0,2.95-.54,5.63-1.61,8.05s-2.68,4.16-4.56,5.77c-1.88,1.61-4.29,2.68-6.97,3.62-2.68.8-5.63,1.21-8.72,1.21h-21.99v-63.42h0l.13-.4ZM1618.74,436.11c1.74,0,3.22-.27,4.69-.67,1.47-.4,2.68-1.07,3.62-1.88.94-.8,1.61-1.61,2.15-2.68s.8-2.28.8-3.75-.27-2.82-.67-3.89-1.21-2.01-2.01-2.68c-.94-.8-2.28-1.47-3.75-1.88s-3.08-.67-4.96-.67h-9.92v18.1h10.06ZM1608.82,464.13h11.53c1.61,0,3.22-.27,4.56-.67,1.34-.4,2.55-1.07,3.49-1.88,1.07-.8,1.88-1.88,2.41-3.08s.8-2.68.8-4.16-.27-2.95-.67-4.29-1.21-2.28-2.15-3.22c-.94-.94-2.01-1.61-3.35-2.01s-2.82-.67-4.56-.8h-12.07v20.11h0Z" fill="#cad7d8"/>
  </g>
</svg>