<?xml version="1.0" encoding="UTF-8"?>
<svg id="Livello_1" data-name="Livello 1" xmlns="http://www.w3.org/2000/svg" viewBox="0 0 474.97 474.97">
  <polygon points="273.42 135.71 273.42 135.76 273.37 135.71 273.42 135.71" fill="#cad7d8"/>
  <path d="M273.37,135.71l.05.05v-.05h-.05Z" fill="#cad7d8"/>
  <polygon points="273.42 135.71 273.42 135.76 273.37 135.71 273.42 135.71" fill="#cad7d8"/>
  <path d="M373.32,135.71h2.32c16.9-1.18,30.35-14.63,31.53-31.48,0,0,.05-3.5.05-4.07.82-17.98,15.71-32.25,33.9-32.25s32.66-13.96,33.85-31.58v-4.74c-1.13-16.9-14.63-30.35-31.48-31.53h-4.74c-17.1,1.19-30.71,15.04-31.53,32.2,0,0-.05,3.81-.05,4.07-1.24,17.62-15.92,31.58-33.85,31.58s-33.95,15.2-33.95,33.95-13.96,32.61-31.58,33.85h-4.74c-16.9-1.18-30.35-14.63-31.53-31.53l-.15-104.12h-67.8v104.12c-1.18,16.9-14.63,30.35-31.48,31.53l-4.74-.05h-.05c-17.67-1.29-31.53-15.92-31.53-33.9s-15.2-33.95-33.95-33.95c-17.72,0-32.2-13.5-33.8-30.76v-.15l-.26-5.36C66.62,14.63,53.12,1.19,36.27,0h-4.74C14.43,1.19.82,15.04,0,32.2v3.35c.82,17.98,15.71,32.25,33.9,32.25s32.66,13.96,33.85,31.63l.15,4.69c1.19,16.9,14.68,30.35,31.53,31.53l9.22.72h.05l.36.05h-.36c15.46,3.19,27.05,16.9,27.05,33.28,0,17.98,13.91,32.66,31.58,33.9h4.74c16.85-1.18,30.29-14.63,31.48-31.53,0,0,0-4.22.05-4.02.82-17.98,15.71-32.3,33.9-32.3h0c17.93,0,32.66,13.96,33.85,31.58v4.84c-1.24,16.85-14.68,30.19-31.48,31.38,0,0-3.5.05-4.02,0-17.47.88-31.43,14.84-32.25,32.25v3.35c-.05.21-.05.46-.05.67-1.18,16.9-14.63,30.35-31.48,31.53h-4.74c-17.67-1.24-31.58-15.92-31.58-33.9s-14.32-33.02-32.3-33.9c-.57.05-70.69.05-71.2,0-17.47.88-31.43,14.84-32.25,32.25v3.35c.82,17.16,14.43,31.02,31.53,32.2h72.54l.1.05c17.62,1.24,31.58,15.92,31.58,33.9s-15.2,33.95-33.95,33.95-32.66,13.91-33.9,31.58l-.15,4.69c-1.13,16.9-14.63,30.35-31.48,31.53l-2.37.05c-18.19,0-33.08,14.32-33.9,32.3v3.35c.82,17.16,14.43,31.02,31.53,32.2h4.74c16.85-1.18,30.35-14.63,31.48-31.53l.15-4.74c1.24-17.62,15.92-31.58,33.9-31.58l2.37-.05c17.62-1.24,31.58-15.92,31.58-33.9s15.2-33.9,33.95-33.9,32.61,13.91,33.85,31.58v104.12h67.8l.08-104.32c0-17.29,18.83-31.39,33.98-31.39,18.75,0,33.95,15.2,33.95,33.9s13.91,32.66,31.58,33.9l2.37.05c17.93,0,32.61,13.96,33.85,31.58,0,.26.05,4.07.05,4.07.82,17.16,14.43,31.02,31.53,32.2h4.74c16.85-1.18,30.35-14.63,31.48-31.53v-4.74c-1.18-17.62-15.92-31.58-33.85-31.58l-2.37-.05c-17.1-1.18-30.71-15.04-31.53-32.2-.05.21-.05.46-.05.67v-4.69c-1.24-17.67-15.92-31.58-33.85-31.58s-33.95-15.2-33.95-33.95-13.96-32.66-31.58-33.9h-4.74c-16.9,1.19-30.35,14.63-31.53,31.53v4.84c-1.18,17.62-16.07,31.48-34,31.48s-33.08-14.32-33.9-32.3c-.05.21-.05.46-.05.72v-4.74c0,.21,0,.46.05.67.77-16.49,13.4-29.93,29.57-31.99l6.7-.26c16.85-1.19,30.35-14.63,31.48-31.53l.15-4.74c1.18-17.05,15.04-30.71,32.2-31.53h3.35c17.98.88,32.3,15.71,32.3,33.9s13.91,32.66,31.58,33.9h72.54c16.85-1.19,30.35-14.63,31.48-31.53v-4.74c-1.18-17.05-14.99-30.71-32.2-31.53-.57.05-71.82,0-71.82,0-17.67-1.24-31.58-15.92-31.58-33.9s15.2-33.95,33.95-33.95ZM68.99,407.12h29.37M273.42,135.76l-.05-.05h.05v.05Z" fill="#cad7d8"/>
</svg>